<svg width="155" height="35" viewBox="0 0 155 35" fill="none" xmlns="http://www.w3.org/2000/svg">
<path d="M155 4.28814e-05L143.649 2.117L151.158 10.889L155 4.28814e-05ZM0.804026 8.21816C1.52922 8.92105 2.27076 9.61275 3.02815 10.2929L4.36445 8.80485C3.62576 8.14148 2.90278 7.46708 2.19597 6.78203L0.804026 8.21816ZM7.7085 14.1935C9.29932 15.4242 10.9465 16.6086 12.6463 17.744L13.7572 16.0809C12.0953 14.9709 10.4859 13.8135 8.9323 12.6116L7.7085 14.1935ZM17.8176 20.9529C19.5608 21.9564 21.3502 22.9116 23.1827 23.8159L24.0678 22.0224C22.2731 21.1367 20.5213 20.2016 18.8154 19.2196L17.8176 20.9529ZM28.711 26.3344C30.5658 27.1117 32.458 27.8391 34.3848 28.5143L35.0462 26.6268C33.1568 25.9647 31.3018 25.2517 29.484 24.4899L28.711 26.3344ZM40.1794 30.3565C42.1103 30.9092 44.071 31.4109 46.0588 31.8595L46.4991 29.9085C44.5481 29.4683 42.6241 28.976 40.7298 28.4337L40.1794 30.3565ZM52.0158 33.0297C53.9982 33.3622 56.0039 33.6425 58.0303 33.869L58.2524 31.8813C56.2623 31.659 54.2929 31.3836 52.3466 31.0572L52.0158 33.0297ZM64.0832 34.3796C66.0895 34.4944 68.113 34.5566 70.1518 34.5644L70.1594 32.5644C68.1563 32.5567 66.1683 32.4957 64.1975 32.3829L64.0832 34.3796ZM76.216 34.4275C78.221 34.3294 80.2383 34.1786 82.2656 33.9734L82.0642 31.9835C80.0714 32.1853 78.0888 32.3335 76.1183 32.4298L76.216 34.4275ZM88.2844 33.2071C90.2681 32.9027 92.2594 32.5456 94.2565 32.1345L93.8532 30.1756C91.8893 30.5799 89.9313 30.9309 87.981 31.2302L88.2844 33.2071ZM100.167 30.7626C102.109 30.2605 104.054 29.7065 106.002 29.0992L105.406 27.1899C103.49 27.7873 101.576 28.3324 99.6663 28.8263L100.167 30.7626ZM111.748 27.1533C113.63 26.465 115.512 25.7258 117.393 24.9348L116.617 23.0912C114.766 23.87 112.913 24.5975 111.061 25.275L111.748 27.1533ZM122.926 22.4544C124.733 21.5936 126.537 20.6837 128.338 19.7235L127.397 17.9587C125.623 18.9047 123.846 19.801 122.066 20.6488L122.926 22.4544ZM133.62 16.754C135.341 15.7363 137.057 14.6714 138.767 13.5583L137.675 11.8822C135.99 12.9797 134.298 14.0295 132.602 15.0326L133.62 16.754ZM143.771 10.1486C145.398 8.99013 147.018 7.78659 148.63 6.53718L147.405 4.95628C145.814 6.18927 144.216 7.37673 142.611 8.51948L143.771 10.1486Z" fill="#D7D7D7"/>
</svg>
