<svg width="345" height="47" viewBox="0 0 345 47" fill="none" xmlns="http://www.w3.org/2000/svg">
<path d="M345 1.49984L333.463 1.98715L339.654 11.7346L345 1.49984ZM0.470786 2.34836C1.31761 2.87654 2.16915 3.3998 3.02531 3.91816L4.06115 2.2073C3.21249 1.69349 2.36849 1.17485 1.52921 0.651386L0.470786 2.34836ZM8.21703 6.96952C9.95274 7.95973 11.706 8.93068 13.476 9.88243L14.4232 8.12093C12.6677 7.17698 10.9291 6.21414 9.20808 5.23233L8.21703 6.96952ZM18.8189 12.6716C20.5995 13.5738 22.3958 14.4574 24.2072 15.3224L25.0691 13.5177C23.2716 12.6593 21.4894 11.7826 19.7229 10.8875L18.8189 12.6716ZM29.6765 17.8576C31.4962 18.6761 33.3301 19.4765 35.1774 20.2589L35.9574 18.4173C34.1235 17.6405 32.3031 16.846 30.4969 16.0336L29.6765 17.8576ZM40.7482 22.5478C42.6033 23.2869 44.4709 24.0084 46.3504 24.7124L47.0519 22.8394C45.1852 22.1403 43.3305 21.4238 41.4885 20.6898L40.7482 22.5478ZM52.0072 26.7657C53.8923 27.4285 55.7885 28.0741 57.6951 28.7027L58.3213 26.8032C56.427 26.1787 54.5432 25.5373 52.6706 24.8789L52.0072 26.7657ZM63.4247 30.5304C65.3351 31.1198 67.2553 31.6924 69.1846 32.2484L69.7383 30.3265C67.8209 29.774 65.9127 29.205 64.0143 28.6193L63.4247 30.5304ZM74.9755 33.8597C76.9073 34.3783 78.8474 34.8806 80.7954 35.3665L81.2795 33.4259C79.3429 32.9429 77.4143 32.4436 75.4941 31.9281L74.9755 33.8597ZM86.638 36.7696C88.5875 37.2199 90.5442 37.6542 92.5075 38.0724L92.9242 36.1163C90.972 35.7004 89.0264 35.2686 87.0881 34.8209L86.638 36.7696ZM98.3932 39.2745C100.357 39.6586 102.327 40.027 104.303 40.3796L104.654 38.4107C102.69 38.06 100.73 37.6937 98.777 37.3117L98.3932 39.2745ZM110.224 41.387C112.2 41.7068 114.181 42.011 116.166 42.2998L116.454 40.3207C114.48 40.0334 112.509 39.7307 110.544 39.4127L110.224 41.387ZM122.116 43.1177C124.102 43.3747 126.091 43.6165 128.083 43.843L128.309 41.8558C126.327 41.6304 124.348 41.3899 122.373 41.1342L122.116 43.1177ZM134.056 44.4755C136.049 44.6711 138.044 44.8516 140.042 45.0171L140.207 43.0239C138.219 42.8593 136.234 42.6797 134.252 42.4851L134.056 44.4755ZM146.032 45.4677C148.029 45.6029 150.029 45.7231 152.029 45.8284L152.134 43.8311C150.144 43.7264 148.154 43.6067 146.167 43.4722L146.032 45.4677ZM158.031 46.0994C160.032 46.1749 162.034 46.2355 164.035 46.2813L164.081 44.2819C162.089 44.2363 160.098 44.176 158.106 44.1009L158.031 46.0994ZM170.044 46.3744C172.046 46.3906 174.048 46.392 176.049 46.3787L176.036 44.3787C174.045 44.392 172.052 44.3906 170.06 44.3744L170.044 46.3744ZM182.059 46.2942C184.061 46.2513 186.062 46.1936 188.06 46.1212L187.988 44.1225C185.999 44.1946 184.009 44.252 182.016 44.2947L182.059 46.2942ZM194.067 45.859C196.067 45.7568 198.064 45.6398 200.058 45.5081L199.926 43.5124C197.942 43.6435 195.955 43.7599 193.965 43.8616L194.067 45.859ZM206.057 45.0667C208.053 44.9047 210.046 44.7279 212.034 44.5363L211.842 42.5455C209.864 42.7361 207.882 42.9121 205.895 43.0732L206.057 45.0667ZM218.018 43.9136C220.009 43.6909 221.995 43.4534 223.976 43.201L223.723 41.217C221.753 41.4681 219.777 41.7044 217.796 41.9259L218.018 43.9136ZM229.939 42.3937C231.923 42.1092 233.901 41.8097 235.872 41.4951L235.557 39.5201C233.596 39.833 231.629 40.131 229.655 40.414L229.939 42.3937ZM241.806 40.4992C243.782 40.1512 245.75 39.7879 247.709 39.4094L247.33 37.4457C245.381 37.8221 243.424 38.1834 241.459 38.5295L241.806 40.4992ZM253.606 38.2197C255.571 37.806 257.527 37.3769 259.473 36.9324L259.027 34.9826C257.092 35.4246 255.148 35.8513 253.194 36.2626L253.606 38.2197ZM265.322 35.5425C267.274 35.0606 269.215 34.563 271.146 34.0496L270.631 32.1168C268.713 32.6271 266.783 33.1218 264.843 33.6008L265.322 35.5425ZM276.937 32.4523C278.873 31.899 280.797 31.3297 282.708 30.7442L282.122 28.8319C280.223 29.4137 278.311 29.9795 276.388 30.5292L276.937 32.4523ZM288.428 28.9309C290.344 28.3026 292.247 27.6577 294.135 26.9963L293.474 25.1087C291.599 25.7657 289.709 26.4062 287.805 27.0304L288.428 28.9309ZM299.772 24.9561C301.664 24.2488 303.541 23.5243 305.4 22.7828L304.66 20.925C302.813 21.6611 300.951 22.3803 299.072 23.0827L299.772 24.9561ZM310.954 20.4967C312.81 19.7079 314.649 18.9016 316.468 18.0777L315.644 16.2557C313.838 17.0731 312.014 17.8732 310.172 18.656L310.954 20.4967ZM321.921 15.5293C323.734 14.6548 325.526 13.7623 327.298 12.8518L326.384 11.073C324.627 11.9757 322.85 12.8607 321.052 13.7279L321.921 15.5293ZM332.628 10.0228C334.392 9.05547 336.134 8.06943 337.853 7.06472L336.843 5.33821C335.141 6.33342 333.415 7.31036 331.666 8.26896L332.628 10.0228Z" fill="#D7D7D7"/>
</svg>
