<?xml version="1.0" encoding="utf-8"?>
<!-- Generator: Adobe Illustrator 23.1.0, SVG Export Plug-In . SVG Version: 6.00 Build 0)  -->
<svg version="1.1" id="Layer_1" xmlns="http://www.w3.org/2000/svg" xmlns:xlink="http://www.w3.org/1999/xlink" x="0px" y="0px"
	 viewBox="0 0 453.54 283.46" style="enable-background:new 0 0 453.54 283.46;" xml:space="preserve">
<style type="text/css">
	.st0{fill:#434343;}
	.st1{fill-rule:evenodd;clip-rule:evenodd;fill:#434343;}
	.st2{fill-rule:evenodd;clip-rule:evenodd;fill:#F2383F;}
</style>
<path class="st0" d="M331.29,120.78h-0.93c-3.83,0-5.8-1.79-5.8-5.09c0-3.83,2.57-5.09,4.68-5.09c1.6,0,2.05,0.3,2.05,1.71V120.78z
	 M339.21,109.03h-10.82c-5.65,0-9,2.19-9,6.54c0,3.2,2.23,5.65,6.36,6.06h-0.04c-1.67,0.45-2.94,1.64-4.46,4.54
	c-1.34,2.53-1.93,3.9-2.64,4.72c-0.59,0.71-1.64,0.97-2.57,1.08v1.23h3.27c3.24,0,4.46-0.89,5.58-3.09c1-1.93,1.93-4.16,2.86-5.8
	c0.74-1.34,1.64-2.01,2.75-2.01h0.78v5.39c0,3.57-0.3,3.98-2.97,4.2v1.3h11.04v-1.3c-2.86-0.22-3.2-0.63-3.2-4.2v-13.2
	c0-3.57,0.3-3.94,3.05-4.16V109.03z M303.89,123.31h-5.8c0.97-2.64,1.9-5.35,2.94-8.07h0.11L303.89,123.31z M314.93,133.2v-1.3
	c-2.38-0.3-2.83-0.78-4.09-4.05c-2.42-6.39-4.72-12.86-7.1-19.37l-1.9,0.48l-7.62,19.11c-1.23,3.12-1.71,3.53-4.16,3.83v1.3h8.33
	v-1.3c-2.71-0.33-2.82-0.85-2.27-2.64c0.45-1.49,0.93-2.82,1.34-3.98h7.14c0.56,1.49,1.12,3.09,1.49,4.2
	c0.59,1.64,0.41,2.08-1.78,2.42v1.3H314.93z M288.84,133.2v-1.3c-1.75-0.19-2.79-0.56-3.83-2.68c-1.12-2.19-1.97-4.31-2.57-5.43
	c-1.26-2.42-2.79-3.38-4.8-3.87v-0.11c0.6-0.3,2.19-1.38,3.61-4.2c1.64-3.27,2.49-3.94,3.9-3.94h0.67c0.74-0.04,1.6-0.45,1.6-1.34
	c0-1-0.85-1.9-2.27-1.86c-1.78,0-3.16,1.15-4.39,3.9c-1.23,2.9-2.01,4.46-3.12,5.5c-1.26,1.26-2.64,1.56-4.46,1.6v-5.17
	c0-3.57,0.22-3.75,3.01-3.98v-1.3h-11.12v1.3c2.79,0.22,3.12,0.41,3.12,3.98v13.68c0,3.49-0.33,3.68-3.12,3.9v1.3h11.12v-1.3
	c-2.75-0.22-3.01-0.41-3.01-3.98v-6.99c1.86-0.04,3.35,0.71,4.42,3.68c0.82,2.19,1.56,4.09,2.08,5.17c1.04,2.27,2.12,3.42,4.87,3.42
	H288.84z M261.81,126.28c-1.9,3.75-4.2,5.73-7.29,5.73c-5.06,0-8.74-4.5-8.74-11.3c0-5.5,2.97-10.56,8.37-10.56
	c2.86,0,5.73,1.3,6.95,5.69l1.38-0.26c-0.26-2.38-0.52-4.09-0.86-6.13c-1-0.19-3.75-0.97-6.77-0.97c-8.89,0-14.72,5.28-14.72,12.94
	c0,5.91,4.09,12.34,13.98,12.34c2.53,0,5.95-0.74,6.92-0.97c0.63-1.3,1.6-4.13,2.08-5.95L261.81,126.28z M225.71,112.01
	c0-0.56,0.07-0.93,0.33-1.15c0.22-0.19,0.67-0.37,1.38-0.37c2.27,0,4.61,1.38,4.61,5.58c0,5.02-2.98,5.99-4.31,5.99
	c-0.78,0-1.56-0.19-2.01-0.37V112.01z M237.38,115.95c0-2.42-1-4.27-2.75-5.46c-1.49-1.04-3.57-1.45-6.51-1.45h-10.26v1.3
	c2.6,0.26,2.94,0.52,2.94,3.68v14.24c0,3.16-0.33,3.42-3.12,3.68v1.26h11.53v-1.26c-3.16-0.26-3.49-0.52-3.49-3.68v-5.13l2.53,0.63
	c0.41,0,0.97,0,1.52-0.07 M201.73,110.07c4.35,0,7.32,4.42,7.32,11.82c0,6.84-2.86,10.3-6.39,10.3c-4.76,0-7.55-5.35-7.55-11.75
	C195.11,114.01,198.01,110.07,201.73,110.07z M202.47,108.51c-8.51,0-13.09,6.28-13.09,12.68c0,7.1,5.17,12.57,12.6,12.57
	c7.03,0,12.79-4.87,12.79-12.9C214.78,113.53,209.24,108.51,202.47,108.51z M186.89,115.31c-0.19-2.38-0.37-5.65-0.41-7.21h-0.93
	c-0.63,0.71-1.15,0.93-2.12,0.93h-14.95c-1.08,0-1.56-0.11-2.12-0.93h-0.93c-0.07,1.9-0.3,4.61-0.45,7.32h1.38
	c0.48-1.86,0.93-3.12,1.56-3.75c0.52-0.63,1.19-1,4.27-1h1.26v17.59c0,3.16-0.37,3.38-3.49,3.64v1.3h12.12v-1.3
	c-3.27-0.26-3.64-0.48-3.64-3.64v-17.59h1.67c2.19,0,3.12,0.19,3.79,0.86c0.67,0.67,1.19,1.93,1.64,3.87L186.89,115.31z
	 M149.72,121.19h0.74c4.2,0,6.39,1.75,6.39,5.24c0,3.64-2.34,5.17-4.42,5.2c-1.97,0.04-2.71-0.74-2.71-3.49V121.19z M149.72,119.7
	v-7.06c0-0.78,0.07-1.34,0.33-1.6c0.22-0.22,0.86-0.48,1.67-0.48c2.01,0,3.98,1.26,3.98,4.65c0,3.09-1.56,4.5-5.17,4.5H149.72z
	 M155.22,120.07c2.68-0.52,5.76-1.97,5.76-5.54c0-1.82-0.82-3.35-2.16-4.24c-1.45-0.89-3.31-1.26-6.13-1.26h-10.86v1.3
	c2.64,0.26,2.97,0.48,2.97,3.68v14.2c0,3.16-0.33,3.42-3.2,3.68v1.3h9.44c3.09,0,5.95-0.52,7.84-1.6c2.08-1.15,3.46-3.09,3.46-5.58
	c0-3.53-2.83-5.28-7.14-5.8V120.07z M128.56,123.31h-5.8c0.97-2.64,1.9-5.35,2.94-8.07h0.11L128.56,123.31z M139.6,133.2v-1.3
	c-2.38-0.3-2.83-0.78-4.09-4.05c-2.42-6.39-4.72-12.86-7.1-19.37l-1.9,0.48l-7.62,19.11c-1.23,3.12-1.71,3.53-4.16,3.83v1.3h8.33
	v-1.3c-2.71-0.33-2.82-0.85-2.27-2.64c0.45-1.49,0.93-2.82,1.34-3.98h7.14c0.56,1.49,1.12,3.09,1.49,4.2
	c0.59,1.64,0.41,2.08-1.78,2.42v1.3H139.6z"/>
<path class="st0" d="M371.33,174.82h-0.93c-3.83,0-5.8-1.79-5.8-5.09c0-3.83,2.57-5.09,4.68-5.09c1.6,0,2.05,0.3,2.05,1.71V174.82z
	 M379.25,163.07h-10.82c-5.65,0-9,2.19-9,6.54c0,3.2,2.23,5.65,6.36,6.06h-0.04c-1.67,0.45-2.94,1.64-4.46,4.54
	c-1.34,2.53-1.93,3.9-2.64,4.72c-0.59,0.71-1.64,0.97-2.57,1.08v1.23h3.27c3.24,0,4.46-0.89,5.58-3.09c1-1.93,1.93-4.16,2.86-5.8
	c0.74-1.34,1.64-2.01,2.75-2.01h0.78v5.39c0,3.57-0.3,3.98-2.97,4.2v1.3h11.04v-1.3c-2.86-0.22-3.2-0.63-3.2-4.2v-13.2
	c0-3.57,0.3-3.94,3.05-4.16V163.07z M343.93,177.35h-5.8c0.97-2.64,1.9-5.35,2.94-8.07h0.11L343.93,177.35z M354.97,187.23v-1.3
	c-2.38-0.3-2.83-0.78-4.09-4.05c-2.42-6.39-4.72-12.86-7.1-19.37l-1.9,0.48l-7.62,19.11c-1.23,3.12-1.71,3.53-4.16,3.83v1.3h8.33
	v-1.3c-2.71-0.33-2.82-0.85-2.27-2.64c0.45-1.49,0.93-2.82,1.34-3.98h7.14c0.56,1.49,1.12,3.09,1.49,4.2
	c0.59,1.63,0.41,2.08-1.78,2.42v1.3H354.97z M328.88,187.23v-1.3c-1.75-0.19-2.79-0.56-3.83-2.68c-1.12-2.19-1.97-4.31-2.56-5.43
	c-1.26-2.42-2.79-3.38-4.8-3.87v-0.11c0.6-0.3,2.19-1.38,3.61-4.2c1.64-3.27,2.49-3.94,3.9-3.94h0.67c0.74-0.04,1.6-0.45,1.6-1.34
	c0-1-0.85-1.9-2.27-1.86c-1.78,0-3.16,1.15-4.39,3.9c-1.23,2.9-2.01,4.46-3.12,5.5c-1.26,1.26-2.64,1.56-4.46,1.6v-5.17
	c0-3.57,0.22-3.75,3.01-3.98v-1.3h-11.12v1.3c2.79,0.22,3.12,0.41,3.12,3.98v13.68c0,3.49-0.33,3.68-3.12,3.9v1.3h11.12v-1.3
	c-2.75-0.22-3.01-0.41-3.01-3.98v-6.99c1.86-0.04,3.35,0.71,4.42,3.68c0.82,2.19,1.56,4.09,2.08,5.17c1.04,2.27,2.12,3.42,4.87,3.42
	H328.88z M301.85,180.32c-1.9,3.75-4.2,5.73-7.29,5.73c-5.06,0-8.74-4.5-8.74-11.3c0-5.5,2.97-10.56,8.37-10.56
	c2.86,0,5.73,1.3,6.95,5.69l1.38-0.26c-0.26-2.38-0.52-4.09-0.86-6.13c-1-0.19-3.75-0.97-6.77-0.97c-8.89,0-14.72,5.28-14.72,12.94
	c0,5.91,4.09,12.34,13.98,12.34c2.53,0,5.95-0.74,6.92-0.97c0.63-1.3,1.6-4.13,2.08-5.95L301.85,180.32z M265.75,166.04
	c0-0.56,0.07-0.93,0.33-1.15c0.22-0.19,0.67-0.37,1.38-0.37c2.27,0,4.61,1.38,4.61,5.58c0,5.02-2.98,5.99-4.31,5.99
	c-0.78,0-1.56-0.19-2.01-0.37V166.04z M257.9,163.07v1.3c2.6,0.26,2.94,0.52,2.94,3.68v14.24c0,3.16-0.33,3.42-3.12,3.68v1.26h11.53
	v-1.26c-3.16-0.26-3.49-0.52-3.49-3.68v-5.13l2.53,0.63c0.41,0,0.97,0,1.52-0.07c3.94-0.48,7.62-2.75,7.62-7.73
	c0-2.42-1-4.27-2.75-5.46c-1.49-1.04-3.57-1.45-6.51-1.45H257.9z M254.63,180.8c-0.67,1.64-1.34,2.83-2.08,3.64
	c-0.86,0.93-2.16,1.19-4.09,1.19c-1.41,0-2.68-0.07-3.35-0.37c-0.74-0.37-0.89-1.3-0.89-3.09v-6.43h2.49c3.16,0,3.64,0.15,4.13,2.83
	h1.34v-7.47h-1.34c-0.48,2.6-1,2.79-4.13,2.79h-2.49v-7.88c0-1.23,0.15-1.3,1.52-1.3h1.78c2.08,0,3.09,0.26,3.72,0.93
	c0.67,0.67,1.15,1.9,1.49,3.2l1.38-0.19c-0.15-2.31-0.33-4.91-0.37-5.58h-17.51v1.3c2.64,0.22,3.01,0.41,3.01,3.64v14.28
	c0,3.16-0.37,3.38-3.53,3.64v1.3h18.96c0.3-1.12,1.04-4.5,1.3-6.17L254.63,180.8z M233.81,169.35c-0.19-2.38-0.37-5.65-0.41-7.21
	h-0.93c-0.63,0.71-1.15,0.93-2.12,0.93h-14.95c-1.08,0-1.56-0.11-2.12-0.93h-0.93c-0.07,1.9-0.3,4.61-0.45,7.32h1.38
	c0.48-1.86,0.93-3.12,1.56-3.75c0.52-0.63,1.19-1,4.27-1h1.26v17.59c0,3.16-0.37,3.38-3.49,3.64v1.3h12.12v-1.3
	c-3.27-0.26-3.64-0.48-3.64-3.64V164.7h1.67c2.19,0,3.12,0.19,3.79,0.86c0.67,0.67,1.19,1.93,1.64,3.87L233.81,169.35z
	 M209.61,187.23v-1.3c-2.86-0.22-3.2-0.52-3.2-3.98v-13.64c0-3.35,0.33-3.72,3.24-3.94v-1.3h-8.55v0.52c0,0.3-0.11,0.78-0.41,1.26
	l-9.55,18.48h-0.07c0.19-3.94,0.19-5.91,0.19-7.4v-7.58c0-3.53,0.3-3.75,3.01-3.98v-1.3h-11.12v1.3c2.9,0.22,3.23,0.52,3.23,4.13
	v13.31c0,3.53-0.33,3.9-3.23,4.13v1.3h8.59v-0.52c0-0.48,0.04-0.89,0.33-1.45l9.55-18.59h0.11c-0.19,3.57-0.19,5.2-0.19,6.54v8.74
	c0,3.46-0.3,3.75-3.27,3.98v1.3H209.61z M172.32,183.23c0,2.08-0.48,2.37-2.34,2.37h-5.54c-1.04,0-1.08-0.26-0.85-1.15
	c1.38-5.35,1.86-13.53,1.86-18.22c0-1.45,0.04-1.56,1.49-1.56h3.94c1.45,0,1.45,0.11,1.45,2.08V183.23z M180.84,185.6h-2.38
	c-1,0-1.15-0.22-1.15-1.93v-15.24c0-3.67,0.22-3.82,3.24-4.04v-1.31h-20.74v1.31l1.38,0.19c2.08,0.3,2.23,0.74,2.23,2.31
	c0,9.62-1.38,15.5-2.56,17.94c-0.26,0.6-0.56,0.78-1.04,0.78h-2.12l-0.15,8.29h1.45l0.97-3.46c0.67-2.53,1.15-3.2,2.83-3.2h12.27
	c1.9,0,2.38,0.48,2.71,2.75l0.63,3.9h1.45L180.84,185.6z M155.22,163.07h-11.19v1.3c2.79,0.26,3.09,0.48,3.09,3.64v5.46h-10.15
	v-5.46c0-3.16,0.3-3.38,2.97-3.64v-1.3h-11.15v1.3c2.86,0.26,3.2,0.48,3.2,3.64v14.28c0,3.16-0.33,3.38-3.05,3.64v1.3h11.08v-1.3
	c-2.75-0.26-3.05-0.48-3.05-3.64v-6.92h10.15v6.92c0,3.16-0.3,3.38-3.23,3.64v1.3h11.34v-1.3c-2.83-0.26-3.12-0.48-3.12-3.61v-14.31
	c0-3.16,0.22-3.38,3.12-3.64V163.07z M112.91,164.11c4.35,0,7.32,4.42,7.32,11.82c0,6.84-2.86,10.3-6.39,10.3
	c-4.76,0-7.55-5.35-7.55-11.75C106.29,168.05,109.19,164.11,112.91,164.11z M113.65,162.55c-8.51,0-13.09,6.28-13.09,12.68
	c0,7.1,5.17,12.57,12.6,12.57c7.03,0,12.79-4.87,12.79-12.9C125.96,167.57,120.42,162.55,113.65,162.55z M98.45,187.23v-1.3
	c-1.75-0.19-2.79-0.56-3.83-2.68c-1.12-2.19-1.97-4.31-2.56-5.43c-1.26-2.42-2.79-3.38-4.8-3.87v-0.11c0.6-0.3,2.19-1.38,3.61-4.2
	c1.63-3.27,2.49-3.94,3.9-3.94h0.67c0.74-0.04,1.6-0.45,1.6-1.34c0-1-0.85-1.9-2.27-1.86c-1.78,0-3.16,1.15-4.39,3.9
	c-1.23,2.9-2.01,4.46-3.12,5.5c-1.26,1.26-2.64,1.56-4.46,1.6v-5.17c0-3.57,0.22-3.75,3.01-3.98v-1.3H74.69v1.3
	c2.79,0.22,3.12,0.41,3.12,3.98v13.68c0,3.49-0.33,3.68-3.12,3.9v1.3h11.12v-1.3c-2.75-0.22-3.01-0.41-3.01-3.98v-6.99
	c1.86-0.04,3.35,0.71,4.42,3.68c0.82,2.19,1.56,4.09,2.08,5.17c1.04,2.27,2.12,3.42,4.87,3.42H98.45z"/>
<path class="st0" d="M209.85,273.77c0.35,0.68,0.82,1.32,1.38,1.89c1.63,1.63,4.51,2.45,7.17,2.47c1.29,0.01,2.51-0.16,3.51-0.51
	c0.88-0.31,1.56-0.76,1.87-1.32c0.21-0.37,0.26-0.82,0.12-1.35v0c-0.05-0.18-0.11-0.35-0.17-0.49c-0.24-0.53-0.64-0.86-1.13-1.01
	c-0.57-0.18-1.28-0.16-2.06,0.05h0c-0.41,0.11-0.84,0.26-1.27,0.47l-0.22,0.1c-2.07,0.97-4.07,1.9-6.34,0.95v0
	c-0.76-0.32-1.38-0.7-1.88-1.12h0c-0.57-0.48-0.99-1.01-1.27-1.57c-0.17-0.35-0.29-0.7-0.37-1.05c0,0.16,0.01,0.32,0.03,0.47
	C209.31,272.44,209.52,273.13,209.85,273.77 M226.18,273.98h-0.03l0,0.02L226.18,273.98z M226.48,273.98L226.48,273.98l0.06,0.09h0
	L226.48,273.98z M226.54,274.07l-0.06-0.09h0L226.54,274.07L226.54,274.07L226.54,274.07z M226.48,273.98l0.06,0.09
	c0.01-0.02,0.03-0.06,0.05-0.09H226.48z M226.38,273.84L226.38,273.84L226.38,273.84z M226.39,273.84L226.39,273.84L226.39,273.84z
	 M226.25,273.63v-0.02l-0.01,0l0,0L226.25,273.63z M226.25,273.64L226.25,273.64l-0.01-0.03l0,0L226.25,273.64z M226.25,273.64
	L226.25,273.64l-0.02-0.03l0,0L226.25,273.64z M226.39,273.98l-0.03,0.13c0.05-0.02,0.14-0.04,0.18-0.04l-0.06-0.09H226.39z
	 M226.15,274l0.03-0.02h0.07v0.07C226.21,274.03,226.17,274,226.15,274z M226.43,273.81l0.18-0.12h0 M226.15,274l0.03-0.02h0
	L226.15,274L226.15,274z M226.23,273.81l0.02,0v-0.17l-0.02-0.02c-0.02,0.04-0.08,0.14-0.12,0.17L226.23,273.81z M226.18,273.98
	l-0.03,0.02v0L226.18,273.98L226.18,273.98z M226.61,273.69l-0.18,0.12l0.05-0.2C226.53,273.64,226.58,273.67,226.61,273.69z
	 M226.61,273.69L226.61,273.69L226.61,273.69l-0.18,0.12l0,0L226.61,273.69z M226.66,273.89c-0.02-0.04-0.04-0.16-0.04-0.2
	l-0.18,0.12l-0.01,0.04L226.66,273.89z M249.83,275.37l0.17,0.18l0,0l0.24,0.25c0.64,0.64,1.3,1.19,1.96,1.65
	c-0.42-0.54-0.78-1.18-1.07-1.91C250.69,275.54,250.26,275.48,249.83,275.37z M241.79,272.29L241.79,272.29
	c-0.1-0.11-0.19-0.2-0.26-0.27c-1.39-1.39-3.69-2.19-6-2.41c-1.33-0.13-2.64-0.06-3.77,0.19c-1.05,0.23-1.92,0.62-2.46,1.16
	c-0.3,0.3-0.48,0.64-0.52,1.04c-0.01,0.11-0.01,0.22,0,0.34l0,0c0.01,0.13,0.04,0.27,0.07,0.39c0.05,0.17,0.11,0.34,0.18,0.49l0,0
	c0.25,0.53,0.64,0.86,1.13,1.02h0c0.57,0.18,1.28,0.16,2.07-0.05c0.4-0.1,0.82-0.26,1.26-0.47l0,0l0.2-0.09
	c2.07-0.97,4.08-1.91,6.35-0.96c2.19,0.92,3.24,2.31,3.52,3.74c0-0.09-0.01-0.18-0.01-0.26c-0.09-1.27-0.64-2.51-1.53-3.57
	C241.93,272.45,241.84,272.35,241.79,272.29z M202.92,272.31l-0.16-0.17l0,0l-0.26-0.26l0,0c-0.64-0.64-1.29-1.18-1.95-1.64
	c0.27,0.35,0.51,0.73,0.73,1.15h0c0.12,0.23,0.23,0.48,0.33,0.75l0,0.01C202.07,272.14,202.5,272.2,202.92,272.31z M221.57,72.25
	c-18.23-2.42-36.27-16.52-37.16-30.54c-0.89-14.01,13.08-19.53,18.62-12.95c1.81,2.15,1.74,5.79-0.78,7.23
	c-2.14,1.22-5.01,0.19-4.72-2.05c0.29-2.23,3.3-2.33,3.69-0.55c1.87-0.83-0.26-4.8-5.33-3.19c-3.35,1.06-6.02,4.89-6.09,9.18
	C189.56,55.56,207.67,69.6,221.57,72.25z M232.52,72.25c18.23-2.42,36.26-16.52,37.17-30.54c0.88-14.01-13.09-19.53-18.63-12.95
	c-1.8,2.15-1.74,5.79,0.79,7.23c2.13,1.22,5.01,0.19,4.72-2.05c-0.29-2.23-3.3-2.33-3.69-0.55c-1.88-0.83,0.25-4.8,5.32-3.19
	c3.36,1.06,6.01,4.89,6.09,9.18C264.54,55.56,246.42,69.6,232.52,72.25z M236,19.75c-0.22-8.64-5.51-10.64-8.95-10.65
	c-3.44,0-8.74,2-8.95,10.65c-0.42,16.46,9.39,38.72,7.71,48.12c0.42-13.3-12.67-31.34-12.88-48.01
	c-0.15-12.7,6.65-18.58,14.13-19.01c7.47,0.43,14.29,6.31,14.11,19.01c-0.2,16.67-13.29,34.72-12.87,48.01
	C226.6,58.47,236.42,36.21,236,19.75z M47,270.49c-7.66-2.24-14.37-5.75-19.58-10.15c-7.22-6.1-11.57-13.91-11.57-22.4
	c0-9.77,5.75-18.63,15.01-25.03c9.15-6.32,21.75-10.24,35.59-10.24h0.95c-5.88-1.53-11.18-3.85-15.59-6.77
	c-8.33-5.52-13.5-13.17-13.5-21.62c0-8.45,5.17-16.1,13.5-21.62c8.21-5.44,19.51-8.81,31.92-8.81v0h16.86
	c-4.69-1.54-8.92-3.89-12.43-6.85c-6.56-5.52-10.63-13.15-10.63-21.55s4.07-16.03,10.63-21.55c6.51-5.48,15.48-8.88,25.33-8.88
	h35.45c-2.42-2.5-3.67-5.66-3.85-8.96c0.42-7.47,6.3-14.28,19.01-14.12c16.67,0.21,34.72,13.3,48.01,12.87
	c-9.39,1.69-31.66-8.13-48.12-7.7c-8.64,0.22-10.65,5.52-10.65,8.95c0,3.43,2.01,8.73,10.65,8.96h2.12
	c16.21-0.39,37.01-9.32,46.01-7.71c-13.3-0.43-31.34,12.67-48.01,12.87c-5.44,0.07-9.62-1.14-12.67-3.13h-37.93
	c-9.37,0-17.87,3.22-24.03,8.4c-6.11,5.14-9.9,12.22-9.9,20s3.79,14.86,9.9,20c6.15,5.18,14.66,8.4,24.03,8.4v0v2.03v0l-0.6,0H83.74
	v0c-12.01,0-22.91,3.24-30.8,8.47c-7.76,5.14-12.59,12.2-12.59,19.93s4.82,14.78,12.59,19.92c7.89,5.22,18.79,8.47,30.8,8.47v2.04
	H66.45c-13.43,0-25.61,3.78-34.44,9.88c-8.71,6.02-14.12,14.29-14.12,23.35c0,7.87,4.07,15.13,10.84,20.85
	c6.97,5.88,16.77,10.12,27.95,11.7h129.57h1.02v0.62c0.18-0.31,0.39-0.63,0.64-0.96c0.28-0.38,0.6-0.74,0.95-1.1l0,0l0.13-0.13
	l0.01-0.01c1.95-1.89,4.44-2.78,7.1-2.53c2.59,0.24,5.32,1.55,7.85,4.05l0.01,0l0.26,0.26l0.01,0.01l0.42,0.44l0.42,0.44
	c0.94,0.97,1.86,1.93,2.83,2.82c-0.36-0.77-0.6-1.59-0.69-2.43c-0.1-0.87-0.05-1.76,0.18-2.64c0.21-0.84,0.58-1.67,1.11-2.47
	c0.43-0.65,0.93-1.16,1.46-1.57c0.99-0.74,2.1-1.08,3.17-1.09c1.08-0.01,2.12,0.31,2.98,0.88c0.46,0.31,0.87,0.69,1.21,1.14
	c1.03,1.38,1.08,2.95,0.62,4.15c-0.18,0.48-0.45,0.92-0.76,1.26c-0.35,0.38-0.76,0.66-1.21,0.8c-0.76,0.25-1.57,0.13-2.28-0.52l0,0
	c-0.52-0.47-0.65-1.14-0.49-1.74v0c0.07-0.26,0.2-0.5,0.37-0.71c0.17-0.21,0.4-0.39,0.67-0.51l0,0c0.24-0.11,0.51-0.17,0.8-0.17
	c-0.03-0.17-0.1-0.36-0.25-0.54l-0.08-0.08v0c-0.43-0.43-0.92-0.56-1.38-0.48c-0.35,0.06-0.71,0.23-1.02,0.47
	c-0.33,0.26-0.63,0.61-0.83,1c-0.36,0.68-0.46,1.5-0.09,2.24c0.16,0.31,0.4,0.62,0.76,0.92l0,0c0.35,0.29,0.8,0.56,1.37,0.8l0,0
	c1.44,0.6,3.04-0.14,4.69-0.91l0.22-0.1c0.55-0.25,1.09-0.45,1.62-0.59v0c1.15-0.3,2.26-0.32,3.2-0.02
	c0.72,0.23,1.34,0.64,1.81,1.23c0.11-0.13,0.23-0.24,0.37-0.33l0,0c0.37-0.25,0.83-0.36,1.3-0.27h0.01l0.02,0.01
	c0-0.11,0.01-0.22,0.02-0.33c0.09-0.9,0.48-1.66,1.11-2.29c0.82-0.82,2.04-1.39,3.46-1.7c1.11-0.25,2.36-0.34,3.63-0.28l-0.01-0.61
	c2.77-0.13,5.02,0.42,6.92,1.26c1.89,0.84,3.38,1.93,4.72,2.93v0l0.16,0.12l0,0c1.82,1.36,3.35,2.5,4.93,2.22l0.91-0.16l0.25,0.89
	c0.35,1.25,0.96,2.16,1.72,2.78c0.68,0.55,1.48,0.88,2.32,1.01c0.86,0.14,1.76,0.07,2.61-0.17l0,0c1.15-0.32,2.19-0.95,2.89-1.81
	c0.5-0.61,0.84-1.25,1.05-1.89c0.22-0.68,0.3-1.38,0.25-2.04h0v0c-0.01-0.12-0.02-0.23-0.04-0.33v0c-0.17-1.25-0.79-2.38-1.67-3.18
	c-0.85-0.77-1.96-1.22-3.16-1.13c-0.09,0.01-0.18,0.02-0.26,0.03h0c-0.83,0.12-1.41,0.48-1.76,0.95c-0.2,0.26-0.34,0.56-0.41,0.86
	c-0.08,0.31-0.09,0.63-0.05,0.93c0.05,0.37,0.19,0.7,0.4,0.9c-0.05-0.14-0.1-0.3-0.14-0.47v0c-0.25-1.07,0.11-1.85,0.75-2.31l0,0
	c0.48-0.35,1.11-0.48,1.73-0.41h0c0.57,0.07,1.16,0.32,1.63,0.74c0.79,0.71,1.26,1.86,0.74,3.39l-0.01,0.03l-0.06,0.15l-0.02,0.04
	l-0.06,0.14l-0.01,0.02c-0.33,0.73-0.85,1.28-1.46,1.66c-0.58,0.35-1.24,0.55-1.93,0.57c-0.66,0.03-1.35-0.1-1.98-0.39
	c-0.76-0.35-1.46-0.93-1.95-1.74c-0.1-0.17-0.2-0.35-0.28-0.53v0c-0.08-0.17-0.15-0.36-0.21-0.56h0c-0.11-0.34-0.18-0.69-0.21-1.04
	v0c-0.13-1.27,0.23-2.52,0.92-3.54l0,0c0.69-1.02,1.72-1.81,2.94-2.2c0.34-0.11,0.72-0.19,1.11-0.23h0c0.14-0.01,0.28-0.02,0.4-0.03
	c2.15-0.1,4.05,0.69,5.48,2.01c1.41,1.31,2.33,3.14,2.53,5.14c0.01,0.14,0.03,0.28,0.03,0.42c0.01,0.22,0.01,0.45,0.01,0.68h0.16
	v-0.5v-0.12v-0.46v-1.02h1.02h129.57c11.18-1.58,20.98-5.82,27.95-11.7c6.77-5.72,10.84-12.98,10.84-20.85
	c0-9.06-5.41-17.33-14.12-23.35c-8.82-6.1-21.01-9.88-34.44-9.88h-16.22v-2.04c12.01,0,22.91-3.24,30.8-8.47
	c7.77-5.14,12.59-12.2,12.59-19.92s-4.82-14.78-12.59-19.93c-7.89-5.22-18.79-8.47-30.8-8.47h-31.54v-2.04
	c9.37,0,17.87-3.22,24.02-8.4c6.11-5.14,9.9-12.22,9.9-20s-3.79-14.86-9.9-20c-6.15-5.18-14.66-8.4-24.02-8.4h-37.23
	c-3.05,1.99-7.23,3.19-12.67,3.13c-16.67-0.21-34.72-13.3-48.01-12.87c9-1.62,29.8,7.32,46,7.71h2.12
	c8.64-0.23,10.64-5.52,10.65-8.96c-0.01-3.43-2.01-8.73-10.65-8.95c-16.47-0.42-38.72,9.39-48.12,7.7
	c13.29,0.43,31.34-12.66,48.01-12.87c12.71-0.17,18.6,6.65,19.02,14.12c-0.19,3.3-1.43,6.46-3.86,8.96h34.74
	c9.85,0,18.82,3.4,25.33,8.88c6.56,5.52,10.63,13.15,10.63,21.55s-4.07,16.03-10.63,21.55c-3.51,2.95-7.73,5.3-12.42,6.84h18.62
	c12.41,0,23.72,3.37,31.92,8.81c8.33,5.52,13.5,13.17,13.5,21.62c0,8.45-5.17,16.11-13.5,21.62c-4.41,2.92-9.7,5.24-15.59,6.77
	c13.8,0.02,26.35,3.94,35.47,10.24c9.26,6.4,15.01,15.25,15.01,25.03c0,8.5-4.35,16.31-11.57,22.4c-5.21,4.4-11.92,7.91-19.58,10.15
	h28.8h0.34l0.28,0.21l0.37,0.28l0,0l0.41,0.29l1.87,1.33h0.08l0.24,0.13c0.53,0.3,1.08,0.57,1.64,0.83
	c0.56,0.25,1.14,0.49,1.74,0.71l0.03,0.02l0.15,0.06l0.01,0l0.14,0.06l5.71,1.98h-6.04H267.52h-1.02v-1.02v-1.39
	c-0.1,0.51-0.26,1.01-0.47,1.52c-0.45,1.08-1.14,2.15-2.12,3.13l-0.01,0.01l-0.12,0.12l0,0c-1.95,1.9-4.44,2.78-7.11,2.54
	c-2.59-0.24-5.33-1.56-7.86-4.06l0,0l-0.25-0.25l-0.01-0.01l-0.83-0.86h0c-0.95-0.98-1.88-1.95-2.85-2.84
	c0.4,0.87,0.65,1.79,0.72,2.74c0.12,1.59-0.28,3.24-1.32,4.81c-0.43,0.64-0.92,1.16-1.46,1.57c-0.99,0.74-2.1,1.08-3.17,1.09
	c-1.08,0.01-2.12-0.31-2.98-0.88c-0.46-0.31-0.88-0.69-1.21-1.14h0c-1.03-1.38-1.07-2.95-0.62-4.16c0.18-0.48,0.45-0.92,0.76-1.26
	c0.34-0.38,0.76-0.66,1.21-0.8c0.76-0.25,1.57-0.13,2.28,0.52c0.52,0.47,0.65,1.14,0.49,1.74c-0.07,0.26-0.2,0.51-0.37,0.71
	c-0.17,0.21-0.4,0.39-0.67,0.51l0,0c-0.24,0.11-0.51,0.17-0.8,0.17c0.03,0.17,0.1,0.36,0.25,0.53l0,0l0.08,0.08v0
	c0.58,0.58,1.29,0.61,1.91,0.32c0.46-0.22,0.88-0.6,1.19-1.07c0.3-0.46,0.48-1,0.47-1.54c-0.02-0.94-0.68-1.95-2.36-2.66
	c-1.44-0.6-3.04,0.15-4.7,0.93l-0.2,0.09v0c-0.53,0.25-1.07,0.45-1.61,0.59c-1.16,0.3-2.26,0.32-3.21,0.02l0,0
	c-0.72-0.23-1.33-0.63-1.81-1.22c-0.11,0.13-0.23,0.24-0.37,0.33c-0.34,0.23-0.75,0.34-1.18,0.29h-0.05l-0.1-0.03
	c0,0.64-0.17,1.23-0.47,1.76c-0.58,1.02-1.64,1.77-2.96,2.24c-1.21,0.43-2.68,0.64-4.2,0.63c-0.19,0-0.38-0.01-0.58-0.02l0.01,0.6
	c-5.67,0.27-9.04-2.25-11.81-4.32c-1.82-1.36-3.33-2.49-4.93-2.21l-0.91,0.16l-0.25-0.89c-0.06-0.22-0.13-0.43-0.21-0.63
	c-0.07-0.19-0.16-0.38-0.25-0.56l0,0c-0.33-0.66-0.77-1.18-1.26-1.58c-0.84-0.68-1.88-1.02-2.94-1.07c-1.09-0.05-2.2,0.2-3.16,0.69
	c-0.67,0.34-1.26,0.8-1.72,1.36c-0.09,0.11-0.17,0.22-0.25,0.32c-0.08,0.11-0.15,0.22-0.23,0.34c-0.73,1.18-0.95,2.44-0.79,3.6
	c0.11,0.78,0.39,1.51,0.79,2.15c0.4,0.63,0.93,1.16,1.55,1.54c0.8,0.5,1.75,0.74,2.76,0.59c1.26-0.18,1.94-0.94,2.15-1.76
	c0.08-0.31,0.1-0.63,0.06-0.93c-0.03-0.28-0.12-0.54-0.24-0.74h0c-0.04-0.07-0.09-0.13-0.15-0.19c0.05,0.13,0.09,0.28,0.13,0.45v0
	c0.25,1.07-0.11,1.85-0.75,2.31c-0.48,0.35-1.11,0.48-1.73,0.41c-0.57-0.07-1.16-0.32-1.63-0.73c-0.8-0.71-1.26-1.86-0.75-3.39v0
	c0.31-0.91,0.88-1.59,1.6-2.03l0,0c0.67-0.42,1.46-0.61,2.26-0.59c0.78,0.03,1.58,0.27,2.27,0.72c0.81,0.54,1.49,1.38,1.85,2.51
	c0.11,0.34,0.18,0.69,0.21,1.04c0.13,1.27-0.23,2.51-0.92,3.53c-0.69,1.02-1.72,1.82-2.94,2.2c-0.35,0.11-0.72,0.19-1.11,0.23
	c-1.59,0.16-3.06-0.17-4.32-0.85c-1.14-0.62-2.11-1.52-2.81-2.6c-0.67-1.02-1.11-2.2-1.26-3.46H11.23H5.19l5.71-1.98l0.14-0.06
	l0.01,0l0.15-0.06l0.03-0.02c0.59-0.22,1.18-0.45,1.74-0.71c0.56-0.25,1.11-0.53,1.64-0.83l0.24-0.13h0.08l1.87-1.33l0.41-0.29l0,0
	l0.37-0.28l0.27-0.21h0.34H47z"/>
<path class="st1" d="M241.68,48.86l-2.88,1.18c-2.53,1.15-4.6,4.34-5.97,6.66c-1.52,2.58-2.57,5.34-3.55,8.16l-0.55,3.11l2.41,0.89
	c2.59,0.95,4.34,2.86,5.47,5.33c0.34,0.62,0.58,1.28,0.75,1.97c0.85,3.64-0.79,7.56-3.03,10.38c-1.29,1.63-2.92,3.08-4.75,4.08
	c-2.59,1.41-5.75,1.72-8.63,1.25c-2.91-0.48-5.85-1.8-7.87-3.99c-0.43-0.47-0.84-0.95-1.24-1.46c-2.3-2.96-4.07-6.79-3.72-10.62
	c0.36-3.95,2.84-6.8,6.15-8.75c0.01,0,0.01-0.01,0.02-0.01c2.67-1.46,4.56-1.99,7.61-1.32l1.86,0.33c0.07,0.01,0.14,0.03,0.2,0.07
	l0.62,0.32l0.52-0.28c0.78-1.63,1.54-3.27,2.34-4.9c1.02-2.06,2.09-4.1,3.27-6.07c2.44-4.06,6.55-9.91,11.66-10.54
	c0.39-0.05,0.78-0.06,1.17-0.05l0.35-0.19c0.34-0.18,0.76-0.06,0.94,0.28l0.28,0.52c0.02,0.04,0.04,0.08,0.06,0.13l0.79,2.62
	c0.1,0.32-0.04,0.65-0.34,0.81l-1.07,0.58c-0.21,0.11-0.44,0.11-0.65,0l-0.81-0.42L241.68,48.86z"/>
<path class="st2" d="M241.56,48.16l1.73,0.07l0.95,0.5l1.07-0.58l-0.79-2.62l-0.28-0.52l-0.52,0.28
	c-8.3-0.55-14.91,14.73-18.08,21.35l-1.04,0.57l-0.95-0.5l-1.87-0.33c-2.95-0.65-4.69-0.09-7.14,1.25
	c-8.92,5.24-6.29,14.07-1.04,19.76c3.65,3.96,10.88,5.21,15.66,2.6c5.34-2.91,9.56-10.34,6.74-15.5c-1.13-2.48-2.82-4.15-5.09-4.99
	l-2.96-1.09l0.66-3.74c1-2.9,2.06-5.67,3.62-8.33c1.45-2.46,3.59-5.73,6.29-6.95L241.56,48.16z"/>
<path class="st0" d="M377.94,233.44c0,0.8-0.32,1.59-0.96,2.39c-0.64,0.8-1.33,1.19-2.07,1.19c-1.27,0-1.91-0.64-1.91-1.91
	c0-1.06,0.48-1.83,1.43-2.31c0.42-0.27,0.35-0.4-0.24-0.4c-0.85,0-2,0.97-3.46,2.91c-1.46,1.94-2.82,4.2-4.1,6.8h4.86
	c0.58,0,0.87,0.24,0.87,0.72c0,0.8-0.48,1.19-1.43,1.19h-5.09c-1.33,3.08-1.99,5.6-1.99,7.56c0,1.8,0.69,2.71,2.07,2.71
	c1.96,0,4.59-1.75,7.88-5.25c0.64-0.05,0.96,0.21,0.96,0.8c-0.85,1.11-2.07,2.23-3.66,3.34c-2.23,1.65-4.3,2.47-6.21,2.47
	c-1.43,0-2.61-0.44-3.54-1.31c-0.93-0.88-1.39-2.03-1.39-3.46c0-0.58,0.08-1.25,0.24-1.99c-3.93,4.46-7.61,6.69-11.06,6.69
	c-2.23,0-3.34-1.11-3.34-3.34c0-1.06,0.33-1.99,0.99-2.79c0.66-0.8,1.39-1.19,2.19-1.19c1.64,0,2.47,0.74,2.47,2.23
	c0,0.69-0.4,1.38-1.19,2.07c-0.8,0.69-1.19,1.11-1.19,1.27c0,0.32,0.21,0.48,0.64,0.48c2.71,0,6-3.42,9.87-10.27h-4.3
	c-0.58,0-0.88-0.24-0.88-0.72c0-0.8,0.5-1.19,1.51-1.19h4.7c1.8-3.5,2.71-6.02,2.71-7.56c0-1.27-0.61-1.91-1.83-1.91
	c-1.43,0-3.18,0.64-5.25,1.91c-1.59,0.9-2.87,1.83-3.82,2.79c-0.74,0.11-1.14-0.21-1.19-0.95c0.58-0.9,1.96-1.99,4.14-3.26
	c2.55-1.43,4.8-2.15,6.76-2.15c1.33,0,2.44,0.41,3.34,1.23c0.9,0.82,1.35,1.87,1.35,3.14c0,0.37-0.03,0.72-0.08,1.03
	c3.08-3.61,5.94-5.41,8.59-5.41C377.06,230.98,377.94,231.8,377.94,233.44 M330.59,242.76c-0.16-1.49-0.61-2.18-1.35-2.07
	c-0.48,0-1.02,0.34-1.63,1.03c-0.61,0.69-0.89,1.57-0.83,2.63c0.11,0.69,0.41,1.29,0.91,1.79c0.5,0.5,1.05,0.81,1.63,0.92
	c0.53-0.9,0.87-1.7,1.03-2.39C330.51,243.98,330.59,243.34,330.59,242.76z M342.36,232.09c0.58-0.37,1.25-0.64,1.99-0.8
	c0.74-0.16,1.41-0.24,1.99-0.24s0.88,0.29,0.88,0.88c-0.05,0-0.31,0.46-0.76,1.39c-0.45,0.93-1.02,2.11-1.71,3.54
	c-0.69,1.43-1.42,3-2.19,4.69c-0.77,1.7-1.49,3.32-2.15,4.86c-0.66,1.54-1.21,2.88-1.63,4.02c-0.42,1.14-0.64,1.87-0.64,2.19
	c0,0.8,0.48,1.19,1.43,1.19c1.91,0,3.85-1.7,5.81-5.09c0.42-0.11,0.72-0.16,0.88-0.16c0.42,0,0.64,0.21,0.64,0.64
	c-0.96,1.8-2.23,3.33-3.82,4.58c-1.59,1.25-3.05,1.87-4.38,1.87c-1.54,0-2.6-0.29-3.18-0.88c-0.58-0.58-0.87-1.48-0.87-2.71
	c0-1.01,0.16-2.15,0.48-3.42c-0.74,0.37-1.43,0.56-2.07,0.56c-0.27,0-0.5-0.03-0.72-0.08c-0.64,1.06-1.42,2-2.35,2.82
	c-0.93,0.82-1.95,1.54-3.06,2.15c-1.11,0.61-2.25,1.06-3.42,1.35c-1.17,0.29-2.31,0.41-3.42,0.36c-2.76,0.11-4.17-1.11-4.22-3.66
	c0-0.8,0.53-2.61,1.59-5.45c1.06-2.84,2.65-6.91,4.78-12.22c0.05-0.11,0.08-0.24,0.08-0.4c0-0.21-0.13-0.34-0.4-0.4
	c-0.26-0.05-0.54-0.11-0.83-0.16c-0.29-0.05-0.56-0.15-0.8-0.28c-0.24-0.13-0.36-0.38-0.36-0.76c-0.16-0.74,0.16-1.11,0.96-1.11
	h2.39c0.8-0.05,1.57-0.15,2.31-0.28c0.74-0.13,1.49-0.23,2.23-0.28c0.58,0,0.87,0.27,0.87,0.8c0,0.11,0.03,0.19,0.08,0.24
	c0.05,0.05,0.05,0.13,0,0.24c-1.11,2.44-2.21,4.88-3.3,7.32c-1.09,2.44-2.04,4.66-2.86,6.65c-0.82,1.99-1.47,3.66-1.95,5.01
	c-0.48,1.35-0.72,2.16-0.72,2.43c0,0.69,0.29,1.03,0.87,1.03c0.64,0,1.34-0.19,2.11-0.56c0.77-0.37,1.51-0.86,2.23-1.47
	c0.72-0.61,1.39-1.29,2.03-2.03c0.64-0.74,1.14-1.51,1.51-2.31c-0.8-0.42-1.5-0.94-2.11-1.55c-0.61-0.61-0.97-1.34-1.07-2.19
	c-0.05-1.22,0.25-2.31,0.92-3.26c0.66-0.96,1.6-1.46,2.82-1.51c1.12-0.16,2-0.01,2.67,0.44c0.66,0.45,1.13,1.07,1.39,1.87
	c0.27,0.8,0.36,1.72,0.28,2.79c-0.08,1.06-0.28,2.1-0.6,3.1c0.27,0.05,0.48,0.08,0.64,0.08c0.32,0,0.62-0.07,0.91-0.2
	c0.29-0.13,0.62-0.3,0.99-0.52c0.37-1.27,0.85-2.6,1.43-3.98c0.58-1.38,1.18-2.73,1.79-4.06c0.61-1.33,1.23-2.6,1.87-3.82
	C341.25,234.13,341.83,233.05,342.36,232.09z M307.51,232.09c0.58-0.37,1.25-0.64,1.99-0.8c0.74-0.16,1.41-0.24,1.99-0.24
	c0.58,0,0.88,0.29,0.88,0.88c-0.05,0-0.31,0.46-0.76,1.39c-0.45,0.93-1.02,2.11-1.71,3.54c-0.69,1.43-1.42,3-2.19,4.69
	c-0.77,1.7-1.49,3.32-2.15,4.86c-0.66,1.54-1.21,2.88-1.63,4.02c-0.42,1.14-0.64,1.87-0.64,2.19c0,0.8,0.48,1.19,1.43,1.19
	c1.91,0,3.85-1.7,5.81-5.09c0.42-0.11,0.72-0.16,0.88-0.16c0.42,0,0.64,0.21,0.64,0.64c-0.96,1.8-2.23,3.33-3.82,4.58
	c-1.59,1.25-3.05,1.87-4.38,1.87c-1.54,0-2.6-0.29-3.18-0.88c-0.58-0.58-0.88-1.48-0.88-2.71c0-1.17,0.26-2.63,0.8-4.38
	c0.37-1.27,0.8-2.57,1.27-3.9h-0.16c-1.06,0-2.2,0.03-3.42,0.08c-0.9,0-1.75,0.03-2.55,0.08c-0.11,0.21-0.21,0.42-0.32,0.64
	l-4.22,9.55c-0.42,0.58-0.96,0.94-1.59,1.07c-0.64,0.13-1.33,0.2-2.07,0.2c-0.64,0-0.96-0.32-0.96-0.96c0-0.16,1.46-3.32,4.38-9.47
	c2.55-5.46,3.82-8.7,3.82-9.71c0-1.01-0.37-1.51-1.11-1.51c-0.16,0-1.19,0.29-3.1,0.87c-0.42-0.16-0.64-0.42-0.64-0.8
	c0-0.48,0.28-0.88,0.84-1.19c0.56-0.32,1.21-0.6,1.95-0.84c0.74-0.24,1.49-0.41,2.23-0.52c0.74-0.11,1.27-0.16,1.59-0.16
	c0.74,0,1.42,0.25,2.03,0.76c0.61,0.5,0.91,1.21,0.91,2.11c0,1.43-1.01,4.27-3.02,8.52c0.64,0,1.38,0,2.23,0
	c1.01,0.05,2.23,0.08,3.66,0.08c0.05-0.11,0.11-0.21,0.16-0.32c0.8-1.91,1.64-3.77,2.55-5.57
	C305.94,234.9,306.76,233.36,307.51,232.09z M285.94,235.19c0,1.33-0.38,2.35-1.15,3.06c-0.77,0.72-1.58,1.07-2.43,1.07
	c-1.59,0-2.39-0.77-2.39-2.31c0-0.74,0.41-1.45,1.23-2.11c0.82-0.66,1.23-1.15,1.23-1.47c0-0.53-0.27-0.8-0.8-0.8
	c-1.8,0-4.01,2.71-6.6,8.12c-2.39,5.09-3.58,8.83-3.58,11.22c0,1.17,0.5,1.75,1.51,1.75c1.33,0,2.97-0.85,4.93-2.55
	c1.64-1.38,2.79-2.6,3.42-3.66c0.27-0.11,0.54-0.04,0.84,0.2c0.29,0.24,0.44,0.54,0.44,0.92c-0.96,1.33-2.2,2.65-3.74,3.98
	c-2.34,2.02-4.56,3.02-6.69,3.02c-3.45,0-5.17-2.2-5.17-6.6c0-3.82,1.68-7.8,5.05-11.94c3.37-4.14,6.67-6.21,9.91-6.21
	C284.61,230.9,285.94,232.33,285.94,235.19z M258.24,234.96c-0.21-1.17-0.48-1.99-0.8-2.47c-0.32-0.48-0.8-0.72-1.43-0.72
	c-0.8,0.16-1.59,0.56-2.39,1.19c-0.8,0.64-1.49,1.39-2.07,2.27c-0.58,0.88-1.06,1.82-1.43,2.83c-0.37,1.01-0.56,1.99-0.56,2.94
	c0,0.8,0.21,1.33,0.64,1.59c0.42,0.27,0.92,0.41,1.47,0.44c0.56,0.03,1.13,0,1.71-0.08c0.58-0.08,1.03-0.04,1.35,0.12
	c0.42-1.06,0.97-2.37,1.63-3.94C257.03,237.57,257.66,236.18,258.24,234.96z M248.21,245.3c0.26-0.21,0.53-0.44,0.8-0.68
	c0.27-0.24,0.53-0.46,0.8-0.68c-1.06-0.11-1.98-0.6-2.75-1.47c-0.77-0.88-1.15-1.9-1.15-3.06c0-1.06,0.28-2.14,0.84-3.22
	c0.56-1.09,1.31-2.07,2.27-2.94c0.96-0.88,2.04-1.57,3.26-2.07c1.22-0.5,2.47-0.7,3.74-0.6c0.8,0.16,1.43,0.38,1.91,0.68
	c0.48,0.29,0.85,0.81,1.11,1.55c0.16-0.37,0.33-0.68,0.52-0.92c0.19-0.24,0.36-0.54,0.52-0.92c0.8,0,1.57-0.01,2.31-0.04
	c0.74-0.03,1.49-0.04,2.23-0.04c0.58,0,0.87,0.27,0.87,0.8c0,0.21-0.03,0.37-0.08,0.48c-1.22,2.39-2.39,4.75-3.5,7.08
	c-1.12,2.33-2.11,4.46-2.98,6.37c-0.88,1.91-1.57,3.49-2.07,4.74c-0.5,1.25-0.76,2-0.76,2.27c0,0.69,0.29,1.03,0.87,1.03
	c0.32,0,0.77-0.17,1.35-0.52c0.58-0.34,1.21-0.76,1.87-1.23c0.66-0.48,1.3-1.01,1.91-1.59c0.61-0.58,1.13-1.11,1.55-1.59
	c0.21,0,0.41,0.08,0.6,0.24c0.19,0.16,0.28,0.37,0.28,0.64c-0.58,0.8-1.25,1.57-1.99,2.31c-0.74,0.74-1.51,1.39-2.31,1.95
	c-0.8,0.56-1.6,0.99-2.43,1.31c-0.82,0.32-1.55,0.48-2.19,0.48c-2.65,0-3.98-1.27-3.98-3.82c0-0.42,0.16-1.26,0.48-2.51
	c0.32-1.25,0.9-2.88,1.75-4.89h-0.56c-1.49,0-2.69,0.53-3.62,1.59c-0.93,1.06-1.84,2.24-2.75,3.54c-0.9,1.3-1.95,2.55-3.14,3.74
	c-1.19,1.19-2.8,1.95-4.81,2.27c-1.33,0-2.44-0.5-3.34-1.51c-0.9-1.01-1.35-2.23-1.35-3.66c0-1.33,0.38-2.35,1.15-3.06
	c0.77-0.72,1.58-1.07,2.43-1.07c1.59,0,2.39,0.77,2.39,2.31c0,0.42-0.13,0.85-0.4,1.27c-0.27,0.42-0.56,0.82-0.88,1.19
	c-0.32,0.37-0.61,0.73-0.88,1.07c-0.26,0.35-0.4,0.68-0.4,0.99c0,0.27,0.11,0.5,0.32,0.72c0.21,0.21,0.61,0.32,1.19,0.32
	c0.85,0,1.74-0.41,2.67-1.23c0.93-0.82,1.82-1.75,2.67-2.79c0.85-1.03,1.59-2.03,2.23-2.98S247.9,245.57,248.21,245.3z
	 M228.56,230.82c0.8,0,1.57,0.01,2.31,0.04c0.74,0.03,1.49,0.04,2.23,0.04c0.58,0,0.88,0.27,0.88,0.8c0,0.21-0.03,0.37-0.08,0.48
	c-1.22,2.39-2.39,4.75-3.5,7.08c-1.11,2.33-2.11,4.46-2.98,6.37c-0.88,1.91-1.57,3.49-2.07,4.74c-0.5,1.25-0.76,2-0.76,2.27
	c0,0.69,0.29,1.03,0.88,1.03c0.32,0,0.77-0.16,1.35-0.48c0.58-0.32,1.19-0.73,1.83-1.23c0.64-0.5,1.26-1.05,1.87-1.63
	c0.61-0.58,1.13-1.11,1.55-1.59h0.08c0.21,0,0.41,0.08,0.6,0.24c0.19,0.16,0.28,0.37,0.28,0.64c-0.58,0.8-1.25,1.57-1.99,2.31
	c-0.74,0.74-1.51,1.39-2.31,1.95c-0.8,0.56-1.6,0.99-2.43,1.31c-0.82,0.32-1.55,0.48-2.19,0.48c-2.65,0-3.98-1.27-3.98-3.82
	c0-0.37,0.2-1.13,0.6-2.27c0.4-1.14,0.93-2.56,1.59-4.26c0.66-1.7,1.47-3.63,2.43-5.81c0.95-2.18,1.99-4.48,3.1-6.92
	c-1.27,0.11-2.41,0.74-3.42,1.91c-1.01,1.17-1.99,2.59-2.95,4.26c-0.95,1.67-1.91,3.48-2.86,5.41c-0.96,1.94-2,3.74-3.14,5.41
	c-1.14,1.67-2.4,3.08-3.78,4.22c-1.38,1.14-2.95,1.74-4.7,1.79c-1.33,0-2.44-0.5-3.34-1.51c-0.9-1.01-1.35-2.23-1.35-3.66
	c0-1.33,0.38-2.35,1.15-3.06c0.77-0.72,1.58-1.07,2.43-1.07c1.59,0,2.39,0.77,2.39,2.31c0,0.58-0.2,1.1-0.6,1.55
	c-0.4,0.45-0.8,0.89-1.19,1.31c-0.4,0.42-0.66,0.82-0.8,1.19c-0.13,0.37,0.09,0.74,0.68,1.12c1.54,0.26,2.94-0.12,4.22-1.15
	c1.27-1.03,2.48-2.4,3.62-4.1c1.14-1.7,2.23-3.57,3.26-5.61c1.03-2.04,2.12-3.95,3.26-5.73c1.14-1.78,2.33-3.26,3.58-4.46
	c1.25-1.19,2.64-1.79,4.18-1.79C228.53,230.9,228.56,230.87,228.56,230.82z M193.94,234.48c0-0.96-0.37-1.43-1.11-1.43
	c-2.18,0-5.11,2.55-8.79,7.64c-3.69,5.09-5.53,8.89-5.53,11.38c0,0.96,0.42,1.43,1.27,1.43c1.38,0,4.17-2.63,8.36-7.88
	c1.91-2.44,3.36-4.64,4.34-6.6C193.45,237.05,193.94,235.54,193.94,234.48z M200.7,231.85c0,0.16-0.16,0.48-0.48,0.96
	c-0.11,0.16-1.51,3.34-4.22,9.55c-2.39,5.46-3.58,8.78-3.58,9.95c0,0.8,0.32,1.19,0.96,1.19c1.22,0,3.24-1.64,6.05-4.93
	c0.21-0.05,0.44,0.03,0.68,0.24c0.24,0.21,0.33,0.45,0.28,0.72c-2.87,4.08-5.84,6.13-8.91,6.13c-2.49,0-3.74-1.25-3.74-3.74
	c0-0.85,0.42-2.41,1.27-4.7c-4.35,5.52-7.83,8.28-10.43,8.28c-2.71,0-4.06-1.67-4.06-5.01c0-4.67,2.31-9.13,6.92-13.37
	c4.46-4.09,9.05-6.13,13.77-6.13c2.39,0,4.11,0.16,5.17,0.48C200.6,231.56,200.7,231.69,200.7,231.85z M157.73,221.59
	c0.8-0.11,1.55-0.21,2.27-0.32c0.72-0.11,1.45-0.16,2.19-0.16c3.61,0,6.43,0.97,8.48,2.9c2.04,1.94,3.06,4.6,3.06,8
	c0,2.6-0.68,5.25-2.03,7.96c-1.35,2.71-3.09,5.17-5.21,7.4c-2.12,2.23-4.5,4.06-7.12,5.49s-5.24,2.15-7.84,2.15
	c-5.78,0-8.68-2.55-8.68-7.64c0-1.43,0.44-2.71,1.31-3.82c0.88-1.11,1.92-1.67,3.14-1.67c2.33,0,3.5,1.33,3.5,3.98
	c0,1.11-0.29,2.02-0.87,2.71c-0.58,0.69-1.22,1.21-1.91,1.55c-0.69,0.34-1.33,0.6-1.91,0.76c-0.58,0.16-0.88,0.27-0.88,0.32
	c0,0.42,0.5,0.86,1.51,1.31c1.01,0.45,2.07,0.68,3.18,0.68c1.96,0,4.03-0.64,6.21-1.91c2.18-1.27,4.16-2.91,5.97-4.89
	c1.8-1.99,3.29-4.22,4.46-6.69c1.17-2.47,1.75-4.89,1.75-7.28c0-2.86-0.86-5.15-2.59-6.84c-1.73-1.7-3.78-2.55-6.17-2.55
	c-1.43,0-2.89,0.32-4.38,0.96c-1.38,0.58-2.65,1.25-3.82,1.99c-0.32,0.8-0.64,1.49-0.96,2.07c-0.74,1.59-1.25,2.65-1.51,3.18
	l-1.59,3.02c-1.91,3.61-4.24,6.67-7,9.19c-2.76,2.52-6.37,4.84-10.82,6.96c-7.59,3.66-15.52,5.49-23.8,5.49
	c-4.51,0-8.58-0.44-12.22-1.31c-3.63-0.88-6.74-2.11-9.31-3.7c-2.57-1.59-4.55-3.52-5.93-5.77c-1.38-2.25-2.07-4.76-2.07-7.52
	c0-2.87,0.89-5.64,2.67-8.32c1.78-2.68,4.17-5.07,7.16-7.16c3-2.1,6.45-3.77,10.35-5.01c3.9-1.25,8-1.87,12.3-1.87
	c2.39,0,4.72,0.19,7,0.56v-0.08c0.9-2.65,2.53-5.19,4.89-7.6c2.36-2.41,5.21-4.54,8.56-6.37c3.34-1.83,7.03-3.29,11.06-4.38
	c4.03-1.09,8.14-1.63,12.34-1.63c3.34,0,8.12,1.03,14.33,3.1c3.18,1.06,5.66,1.83,7.44,2.31c1.78,0.48,2.85,0.72,3.22,0.72
	c1.54,0,2.84-0.85,3.9-2.55c0.16-0.11,0.35-0.16,0.56-0.16c0.48,0,0.72,0.26,0.72,0.8c0,0.8-0.32,1.57-0.96,2.31
	c-0.64,0.74-1.45,1.41-2.43,1.99c-0.98,0.58-2.05,1.06-3.22,1.43c-1.17,0.37-2.25,0.56-3.26,0.56c-1.8,0-6.02-1.22-12.65-3.66
	c-6.53-2.44-11.91-3.66-16.16-3.66c-2.65,0-5.35,0.5-8.08,1.51c-2.73,1.01-5.29,2.32-7.68,3.94c-2.39,1.62-4.48,3.45-6.29,5.49
	c-1.8,2.04-3.08,4.13-3.82,6.25l-0.08,0.08c1.49,0.32,2.95,0.72,4.38,1.19c4.35,1.38,8.17,3.18,11.46,5.41l0.16,0.48
	c0,0.42-0.32,0.64-0.96,0.64c-0.05,0-0.29-0.05-0.72-0.16c-3.98-2.65-8.86-4.64-14.64-5.97c-0.21,1.01-0.32,1.73-0.32,2.15
	c0,1.54,0.35,3.08,1.03,4.62v0.16c0,0.32-0.19,0.48-0.56,0.48c-0.42,0-0.8-0.24-1.11-0.72c-0.32-0.48-0.58-1.03-0.8-1.67
	c-0.21-0.64-0.37-1.29-0.48-1.95c-0.11-0.66-0.16-1.18-0.16-1.55v-0.72c0-0.27,0.03-0.53,0.08-0.8v-0.32
	c-0.96-0.11-1.72-0.19-2.31-0.24c-0.74-0.05-1.49-0.08-2.23-0.08c-3.82,0-7.56,0.6-11.22,1.79c-3.66,1.19-6.92,2.79-9.79,4.78
	c-2.87,1.99-5.16,4.26-6.88,6.8c-1.73,2.55-2.59,5.2-2.59,7.96c0,2.49,0.6,4.71,1.79,6.64c1.19,1.94,2.91,3.58,5.13,4.94
	c2.23,1.35,4.93,2.39,8.12,3.1c3.18,0.72,6.79,1.07,10.82,1.07c7.43-0.05,14.05-1.7,19.86-4.93c5.81-3.24,10.7-8.22,14.68-14.96
	l1.75-2.95c0.9-1.7,1.87-3.5,2.9-5.41c1.03-1.91,2.06-3.73,3.06-5.45c1.01-1.72,1.98-3.3,2.91-4.73c0.93-1.43,1.76-2.52,2.51-3.26
	c0.69-0.74,1.59-1.54,2.71-2.39c1.12-0.85,2.26-1.63,3.42-2.35c1.17-0.72,2.27-1.3,3.3-1.75s1.84-0.68,2.43-0.68
	c0.48,0,0.72,0.16,0.72,0.48c0,0.48-0.34,0.82-1.03,1.03c-1.01,0.42-1.98,0.97-2.9,1.63c-0.93,0.66-1.87,1.55-2.83,2.67
	c-0.95,1.11-1.94,2.51-2.94,4.18c-1.01,1.67-2.1,3.73-3.26,6.17c-0.27,0.58-0.53,1.14-0.8,1.67c0.64-0.27,1.27-0.53,1.91-0.8
	C155.84,221.9,156.88,221.64,157.73,221.59z"/>
</svg>
