<svg width="69" height="199" viewBox="0 0 69 199" fill="none" xmlns="http://www.w3.org/2000/svg">
<path d="M69 199L64.2388 188.48L57.5091 197.863L69 199ZM63.2614 0.14764C62.4026 0.674508 61.5531 1.20384 60.7128 1.73559L61.7822 3.42566C62.6147 2.89889 63.4564 2.37444 64.3073 1.85236L63.2614 0.14764ZM55.7805 4.95479C54.1134 6.07741 52.4856 7.21008 50.8967 8.35243L52.0642 9.97629C53.6362 8.84611 55.2472 7.72512 56.8976 6.61371L55.7805 4.95479ZM46.1671 11.8695C44.5796 13.0909 43.0349 14.3226 41.5328 15.5641L42.8069 17.1057C44.2908 15.8793 45.8173 14.6621 47.3867 13.4546L46.1671 11.8695ZM37.0252 19.4322C35.5351 20.7606 34.0918 22.0994 32.695 23.4482L34.0842 24.887C35.4616 23.557 36.8854 22.2361 38.3561 20.925L37.0252 19.4322ZM28.5211 27.6525C27.135 29.1104 25.8012 30.579 24.5193 32.0577L26.0305 33.3678C27.2919 31.9127 28.6051 30.4667 29.9706 29.0305L28.5211 27.6525ZM20.7431 36.6326C19.5083 38.2063 18.3303 39.7904 17.2087 41.3841L18.8442 42.5352C19.9455 40.9703 21.1028 39.4141 22.3165 37.8672L20.7431 36.6326ZM13.9263 46.3315C12.8625 48.0367 11.8612 49.7519 10.9218 51.4762L12.6781 52.433C13.5984 50.7438 14.5798 49.0625 15.6232 47.39L13.9263 46.3315ZM8.2371 56.7869C7.3901 58.601 6.60976 60.4239 5.89547 62.2545L7.75867 62.9815C8.45708 61.1915 9.22038 59.4084 10.0493 57.633L8.2371 56.7869ZM3.91979 67.8651C3.32061 69.7699 2.79115 71.6817 2.33072 73.5995L4.27545 74.0664C4.72507 72.1937 5.2422 70.3263 5.82762 68.4653L3.91979 67.8651ZM1.14503 79.4338C0.817393 81.3989 0.560683 83.3687 0.374111 85.3422L2.36523 85.5304C2.54736 83.604 2.79795 81.681 3.1178 79.7628L1.14503 79.4338ZM0.0236297 91.2888C-0.0231483 93.2714 -0.000371575 95.2562 0.0911254 97.2422L2.08901 97.1502C1.99963 95.2102 1.9774 93.2717 2.02307 91.3359L0.0236297 91.2888ZM0.567742 103.174C0.79238 105.137 1.08321 107.099 1.43941 109.06L3.40721 108.702C3.05873 106.784 2.77435 104.865 2.55476 102.947L0.567742 103.174ZM2.68807 114.876C3.16169 116.788 3.69691 118.697 4.29295 120.604L6.20182 120.007C5.61755 118.138 5.0932 116.267 4.6294 114.395L2.68807 114.876ZM6.23192 126.229C6.92413 128.067 7.67259 129.9 8.47659 131.729L10.3074 130.924C9.5176 129.128 8.78279 127.328 8.10353 125.524L6.23192 126.229ZM11.0016 137.092C11.8802 138.842 12.8097 140.587 13.7894 142.325L15.5317 141.343C14.5674 139.632 13.653 137.916 12.7891 136.195L11.0016 137.092ZM16.8206 147.427C17.8602 149.091 18.946 150.748 20.0774 152.397L21.7268 151.266C20.6111 149.639 19.5409 148.006 18.5167 146.367L16.8206 147.427ZM23.5256 157.212C24.6933 158.776 25.9024 160.333 27.1523 161.882L28.7086 160.626C27.4742 159.096 26.2806 157.559 25.1282 156.016L23.5256 157.212ZM30.9561 166.424C32.242 167.906 33.5656 169.379 34.9266 170.844L36.3917 169.482C35.0458 168.034 33.7373 166.577 32.4665 165.113L30.9561 166.424ZM39.0123 175.101C40.3865 176.488 41.7945 177.867 43.2362 179.237L44.6137 177.787C43.1865 176.431 41.7929 175.066 40.4333 173.694L39.0123 175.101ZM47.5973 183.261C49.0499 184.563 50.5334 185.856 52.0473 187.14L53.3409 185.615C51.8407 184.343 50.371 183.061 48.9322 181.771L47.5973 183.261ZM56.6014 190.9C58.1303 192.13 59.6878 193.35 61.2734 194.56L62.487 192.97C60.9145 191.77 59.3703 190.56 57.8546 189.342L56.6014 190.9Z" fill="#E0E0E0"/>
</svg>
